<svg width="16" height="16" viewBox="0 0 16 16" fill="none" xmlns="http://www.w3.org/2000/svg">
<path d="M3.33333 5.91666C4.76006 5.91666 5.91666 4.76006 5.91666 3.33333C5.91666 1.9066 4.76006 0.75 3.33333 0.75C1.9066 0.75 0.75 1.9066 0.75 3.33333C0.75 4.76006 1.9066 5.91666 3.33333 5.91666Z" stroke="white" stroke-width="1.5"/>
<path d="M3.33333 15.25C4.76006 15.25 5.91666 14.0934 5.91666 12.6667C5.91666 11.24 4.76006 10.0834 3.33333 10.0834C1.9066 10.0834 0.75 11.24 0.75 12.6667C0.75 14.0934 1.9066 15.25 3.33333 15.25Z" stroke="white" stroke-width="1.5"/>
<path d="M12.6667 5.91666C14.0934 5.91666 15.25 4.76006 15.25 3.33333C15.25 1.9066 14.0934 0.75 12.6667 0.75C11.24 0.75 10.0834 1.9066 10.0834 3.33333C10.0834 4.76006 11.24 5.91666 12.6667 5.91666Z" stroke="white" stroke-width="1.5"/>
<path d="M12.6667 15.25C14.0934 15.25 15.25 14.0934 15.25 12.6667C15.25 11.24 14.0934 10.0834 12.6667 10.0834C11.24 10.0834 10.0834 11.24 10.0834 12.6667C10.0834 14.0934 11.24 15.25 12.6667 15.25Z" stroke="white" stroke-width="1.5"/>
</svg>
